<svg width="92" height="26" viewBox="0 0 92 26" fill="none" xmlns="http://www.w3.org/2000/svg">
<path fill-rule="evenodd" clip-rule="evenodd" d="M25.0408 11.8136C26.2023 10.4448 27.6184 9.75264 29.2632 9.75264C32.1061 9.75264 35.045 12.097 35.045 16.0161V16.061C35.045 20.0096 32.1046 22.3694 29.2632 22.3694C27.594 22.3694 26.1779 21.7036 25.0408 20.389V21.2654C25.0408 21.7841 24.6506 22.1914 24.1521 22.1914C23.6415 22.1914 23.2406 21.7857 23.2406 21.2654V6.69754C23.2406 6.16023 23.614 5.77002 24.1292 5.77002C24.649 5.77002 25.0408 6.16952 25.0408 6.69754V11.8136ZM33.1578 16.1075V16.0626C33.1578 13.4845 31.4369 11.5396 29.1534 11.5411C27.1443 11.5411 24.9752 13.2615 24.9752 16.041V16.0859C24.9752 18.249 26.5727 20.5857 29.1534 20.5857C31.5481 20.5857 33.1578 18.7864 33.1578 16.1075Z" fill="#00CD4D"/>
<path d="M42.6622 9.84247C41.3924 9.84247 39.7141 10.5981 38.5495 12.2286V10.8583C38.5495 10.3302 38.1578 9.93228 37.638 9.93228C37.1395 9.93228 36.7493 10.3395 36.7493 10.8583V21.267C36.7493 21.795 37.141 22.1929 37.6608 22.1929C38.1593 22.1929 38.5495 21.7857 38.5495 21.267V17.0861C38.5495 13.4643 40.6912 11.9731 42.685 11.7842C43.2124 11.7502 43.595 11.3429 43.595 10.8133C43.595 10.2683 43.185 9.84247 42.6622 9.84247Z" fill="#00CD4D"/>
<path fill-rule="evenodd" clip-rule="evenodd" d="M49.4651 9.84552C50.9514 9.89197 52.1678 10.3565 52.9924 11.1958C53.8156 12.0366 54.2348 13.201 54.2363 14.6597V21.2654C54.2363 21.8011 53.8628 22.1913 53.3476 22.1913C52.8324 22.1913 52.4589 21.8027 52.4589 21.2654V20.8364C51.6861 21.5921 50.4346 22.371 48.5642 22.371C45.4988 22.371 43.8952 20.3936 43.8952 18.441V18.3961C43.8952 15.9278 45.95 14.3329 49.1313 14.3329C50.5626 14.3329 51.59 14.5064 52.4574 14.717V14.7046C52.4574 12.2518 50.8096 11.6557 49.3462 11.6092L46.4851 11.7826C45.979 11.7826 45.5827 11.3305 45.5628 10.8118C45.54 10.2357 46.0811 9.83313 46.5796 9.83313L49.4651 9.84087V9.84552ZM48.6266 20.6073C50.8216 20.6073 52.477 19.2648 52.477 17.4856V16.4853C51.6127 16.2716 50.4756 16.0549 49.0625 16.0549C46.994 16.0549 45.7578 16.9065 45.7578 18.3311V18.376C45.7578 19.8408 47.2013 20.6073 48.6266 20.6073Z" fill="#00CD4D"/>
<path d="M61.8412 9.75262C60.3489 9.75262 59.105 10.2992 58.1874 11.3444V10.8567C58.1874 10.3286 57.7956 9.9307 57.2758 9.9307C56.7774 9.9307 56.3871 10.3379 56.3871 10.8567V21.2654C56.3871 21.7934 56.7789 22.1914 57.2987 22.1914C57.8139 22.1914 58.1874 21.8011 58.1874 21.2654V15.1707C58.1874 13.04 59.6599 11.4931 61.6888 11.4931C63.6765 11.4931 64.8624 12.8015 64.8624 14.9926V21.2654C64.8624 21.7934 65.2542 22.1914 65.774 22.1914C66.2892 22.1914 66.6627 21.8011 66.6627 21.2654V14.7928C66.6611 11.7315 64.7695 9.75262 61.8412 9.75262Z" fill="#00CD4D"/>
<path d="M78.42 18.8049C78.1273 18.8049 77.9322 18.9691 77.8118 19.0914C76.824 20.0963 75.7356 20.6058 74.5741 20.6058C72.2068 20.6058 70.3517 18.6098 70.3517 16.0611V16.0162C70.3517 13.4922 72.1687 11.5164 74.4872 11.5164C75.9429 11.5164 76.9216 12.2735 77.6807 13.0091C77.8301 13.1608 78.0648 13.2522 78.3102 13.2522C78.8209 13.2522 79.2218 12.8449 79.2218 12.3262C79.2218 12.08 79.1227 11.826 78.9535 11.6557C78.0237 10.77 76.6777 9.75421 74.5101 9.75421C71.1779 9.75421 68.4661 12.5848 68.4661 16.0626V16.1075C68.4661 19.5621 71.1779 22.3726 74.5101 22.3726C76.289 22.3726 77.6959 21.7346 79.0724 20.3069C79.2218 20.1552 79.3102 19.9322 79.3102 19.7123C79.3087 19.2369 78.8849 18.8049 78.42 18.8049Z" fill="#00CD4D"/>
<path d="M86.3678 9.75264C84.8755 9.75264 83.6316 10.2992 82.714 11.3445V6.69754C82.714 6.17726 82.3131 5.77002 81.8024 5.77002C81.304 5.77002 80.9138 6.17726 80.9138 6.69754V21.2654C80.9138 21.7934 81.3055 22.1914 81.8253 22.1914C82.3405 22.1914 82.714 21.8012 82.714 21.2654V15.1707C82.714 13.04 84.1865 11.4931 86.2154 11.4931C88.2031 11.4931 89.389 12.8015 89.389 14.9926V21.2654C89.389 21.7934 89.7808 22.1914 90.3006 22.1914C90.8158 22.1914 91.1893 21.8012 91.1893 21.2654V14.7929C91.1878 11.7316 89.2961 9.75264 86.3678 9.75264Z" fill="#00CD4D"/>
<path fill-rule="evenodd" clip-rule="evenodd" d="M9.6924 1.17415L9.69242 1.17419L9.69246 1.17425C9.71927 1.22154 9.74193 1.26149 9.76084 1.29141C10.516 2.48745 16.2545 11.6681 16.253 15.0064C16.253 18.4628 14.6209 20.5385 10.6378 24.016C10.6378 24.016 9.36673 25.0047 8.12726 25.0047C6.98556 25.0047 5.9642 24.334 5.9642 24.334C1.80054 21.0229 0 18.4613 0 15.0064C0 11.6681 5.69345 2.5586 6.44706 1.36257C6.45658 1.3475 6.46762 1.32966 6.48016 1.3094C6.68556 0.977651 7.29083 0 8.12726 0C9.02651 0 9.48448 0.807525 9.6924 1.17415ZM9.02826 13.1776L12.6865 10.2389C11.6486 8.13908 10.2978 5.72279 9.02826 3.58053V13.1776ZM1.80209 15.0064C1.80209 13.2835 4.67965 7.87716 7.22779 3.58053V22.708C6.54789 22.3915 5.96575 21.8723 5.96575 21.8723C2.45492 18.5839 1.80209 17.4167 1.80209 15.0064ZM9.02826 22.7095C9.70817 22.3931 10.2903 21.8723 10.2903 21.8723C13.7996 18.5839 14.454 17.4167 14.454 15.0064C14.454 14.3948 14.0899 13.3183 13.5078 11.9921L13.4762 11.924L9.02826 15.4969V22.7095Z" fill="#00CD4D"/>
</svg>
