<svg id="Layer_1" data-name="Layer 1" xmlns="http://www.w3.org/2000/svg" viewBox="0 0 460 220"><defs><style>.cls-1{fill:#2650a3;fill-rule:evenodd;}.cls-2{fill:#454f4e;}</style></defs><path class="cls-1" d="M235,36.15h0L235,12l-14.57,0H204.25v0h0l0,9.22s0,.09,0,.13V36.17h14.54l.4,0,7.81,0h8Z"/><path class="cls-2" d="M151.09,57.48l-.59.41-.21.16-.84.61-.06,0,0,0-.91.7q-.63.5-1.23,1l-.23.2-.82.74c-9.32,8.54-14.69,20.45-19.92,32.26h0C119,110.05,111.14,128,92.3,134l-.4.12a52.54,52.54,0,0,1-13.73,2.13c-.65,0-1.3,0-2,0H39.33V96.76H75.75c9.11,0,15.52,1.47,19.34,4.39,3.93,3.1,6,8,6.14,14.57,7.36-7.84,12.08-20.12,16.42-29.81v0a47.33,47.33,0,0,0-7.62-4A33.81,33.81,0,0,0,123.65,70q4.83-7.87,4.83-19.3,0-18-12.29-28.56-12.31-9.66-35.57-9.66H25.28A15.72,15.72,0,0,0,9.46,28.26V163.5H79.7q23.34-.27,37.15-10a56.39,56.39,0,0,0,12.7-11.72V163.5h30.73V103.36c0-15.74,9.17-25.19,24.2-25.46a36.51,36.51,0,0,1,7.91,1V48C178,46.14,162.91,49.32,151.09,57.48ZM39.33,38.79H74.44c8.51,0,14.2,1.16,17.13,3.52,3.52,2.63,5.28,6.75,5.28,12.29s-1.76,9.67-5.28,12.3-9.07,4-16.68,4H39.33Z"/><path class="cls-2" d="M428,55.5a71.67,71.67,0,0,0-39.08-11.43q-27.66,0-40.17,16.91a57.13,57.13,0,0,0-7.21,13V26.91a14.63,14.63,0,0,0-4.39-10.31A14,14,0,0,0,326.64,12H311.69V62.06a42.06,42.06,0,0,0-14.05-13.6,40.93,40.93,0,0,0-19.34-4.39q-20.62,0-33.8,17.13A54,54,0,0,0,241,66.35,142.27,142.27,0,0,1,251.23,85.9c3,6.75,6.16,14.78,10.46,21.77q-.06-1.68-.06-3.45,0-15.8,6.59-24.58a20.92,20.92,0,0,1,18-9.22q11.87,0,18.89,8.77,6.57,9.21,6.59,25,0,17.6-6.14,26.8-6.58,9.21-18.44,9.21c-18.83,0-38.64-33.48-45.05-47.9l-.18-.4-.4-.9,0-.07-.37-.83-.24-.53-.16-.36-.41-.9-.05-.1L240.1,88l-.37-.8-.13-.28-.15-.33-.42-.89-.27-.57-.27-.56-.27-.56,0-.08-.43-.88-.3-.6-.25-.5-.31-.62v0l-.45-.87-.31-.6-.3-.56-.27-.52,0,0h0c-3.93-7.31-8.61-14-15.09-19.23a54.37,54.37,0,0,0-16.19-8.73V163.5H235V138.69a62.47,62.47,0,0,0,12,14A37.24,37.24,0,0,0,262.07,162a70,70,0,0,0,11,2.81h0a68.35,68.35,0,0,0,11.35.94,73.84,73.84,0,0,0,39.08-11q12.38-7.52,16.25-24.53a51.17,51.17,0,0,0,5.91,12.46c6.3,9.52,13.83,16,22.64,19.52a43.76,43.76,0,0,0,26.57,2.22q13.38-3.1,21.28-15.37v7.46c-.6,9.37-2.85,16.37-6.82,21.06s-8.32,7.53-13.15,8.58A24.48,24.48,0,0,1,371,174.93h-32q9.61,37.77,50,37.77A72.72,72.72,0,0,0,428,201.51q18.06-11.19,18-41.94V97.66Q446.05,66.91,428,55.5Zm-12.7,60.79q-1.8,10.33-5.73,15.17-8.32,11.41-25.9,8.1T366.12,106a57,57,0,0,1,5.28-25q5.24-11,20.2-11c7.31,0,12.85,2.62,16.68,7.91a40.49,40.49,0,0,1,7.23,18A63.4,63.4,0,0,1,415.32,116.29Z"/><polygon class="cls-2" points="438.47 48.07 440.09 48.07 440.09 41.26 442.7 41.26 442.7 39.91 435.86 39.91 435.86 41.26 438.47 41.26 438.47 48.07"/><path class="cls-2" d="M452.51,39.91h-2.34l-1.41,4c-.18.6-.36,1.29-.57,2h0c-.21-.84-.36-1.44-.54-2.07l-1.41-4h-2.43l-.6,8.16h1.56l.3-4.8c0-.75.06-1.53.06-2.28h.09c.18.72.42,1.68.57,2.31L447.23,48h1.68l1.47-4.53c.24-.75.48-1.71.69-2.43h.09c0,.87,0,1.65.06,2.28l.3,4.8h1.62Z"/></svg>