<svg width="193" height="46" viewBox="0 0 193 46" xmlns="http://www.w3.org/2000/svg">
    <g fill-rule="nonzero" fill="none">
        <path d="M24.375 5.796a1.38 1.38 0 0 1 1.258 1.48 1.358 1.358 0 0 1-1.464 1.258 14.194 14.194 0 0 0-6.258.904C10.508 12.279 6.83 20.635 9.696 28.1c2.866 7.465 11.19 11.214 18.593 8.372 7.402-2.841 11.08-11.197 8.214-18.663a1.37 1.37 0 0 1 .78-1.772 1.37 1.37 0 0 1 1.766.795c3.41 8.884-.966 18.826-9.775 22.207-8.808 3.382-18.713-1.079-22.123-9.962-3.41-8.884.966-18.826 9.774-22.208a16.902 16.902 0 0 1 7.45-1.074z" fill="#3F89C6"/>
        <path d="M16.915 33.48a1.369 1.369 0 0 1-.478-1.877 1.37 1.37 0 0 1 1.872-.494c4.431 2.604 10.156 1.123 12.828-3.324 2.69-4.477 1.272-10.268-3.167-12.935s-10.217-1.2-12.907 3.276a1.37 1.37 0 0 1-1.877.477 1.37 1.37 0 0 1-.46-1.88c3.472-5.78 10.93-7.673 16.66-4.23 5.73 3.443 7.56 10.918 4.088 16.696-3.449 5.74-10.838 7.652-16.559 4.29z" fill="#B1B9C6"/>
        <path d="M23.1 15.833c-3.967 0-7.183 3.189-7.183 7.122 0 3.934 3.216 7.123 7.183 7.123 3.967 0 7.183-3.189 7.183-7.123 0-3.933-3.216-7.122-7.183-7.122zm0 2.727c2.448 0 4.433 1.968 4.433 4.395 0 2.428-1.985 4.396-4.433 4.396-2.449 0-4.433-1.968-4.433-4.396 0-2.427 1.984-4.395 4.433-4.395z" fill="#F4714A"/>
        <path d="M58.437 31.196c4.828 0 8.09-2.994 8.09-7.912 0-4.918-3.262-7.912-8.09-7.912h-6.59v15.824h6.59zm0-2.6h-3.681V17.972h3.681c3.174 0 5.114 1.967 5.114 5.311s-1.94 5.311-5.114 5.311zm14.438 2.95c1.962 0 3.704-.743 4.762-2.186l.55 1.836h2.25v-7.628c0-3.3-1.852-5.355-5.776-5.355-3.637 0-5.202 1.836-5.775 4.044l2.667.634c.375-1.421 1.278-2.23 2.976-2.23 1.94 0 3.042 1.028 3.042 3.06v.722a11.4 11.4 0 0 0-4.012-.722c-3.681 0-5.158 1.814-5.158 3.956 0 2.208 1.543 3.87 4.474 3.87zm.728-2.295c-1.3 0-2.337-.503-2.337-1.77 0-1.224 1.014-1.77 2.734-1.77 1.278 0 2.469.174 3.57.568-.065 1.901-2.115 2.972-3.967 2.972zm14.926 2.295c2.402 0 3.945-1.158 4.496-3.17l-2.336-.764c-.33.918-1.014 1.42-1.962 1.42-1.146 0-1.807-.764-1.807-2.141v-5.88h5.158v-2.448H86.92v-2.799l-2.741.811v1.988h-2.131v2.448h2.13v5.88c0 3.016 1.485 4.655 4.35 4.655zm10.16 0c1.961 0 3.702-.743 4.76-2.186l.552 1.836h2.248v-7.628c0-3.3-1.852-5.355-5.775-5.355-3.637 0-5.203 1.836-5.776 4.044l2.668.634c.374-1.421 1.278-2.23 2.975-2.23 1.94 0 3.042 1.028 3.042 3.06v.722a11.4 11.4 0 0 0-4.012-.722c-3.68 0-5.158 1.814-5.158 3.956 0 2.208 1.543 3.87 4.475 3.87zm.727-2.295c-1.301 0-2.337-.503-2.337-1.77 0-1.224 1.014-1.77 2.733-1.77 1.279 0 2.47.174 3.571.568-.066 1.901-2.116 2.972-3.967 2.972zm14.815 2.295c3.703 0 5.797-1.53 5.797-4.022 0-5.53-8.486-2.688-8.486-5.617 0-.896.882-1.399 2.425-1.399 1.763 0 2.91.722 3.218 2.055l2.667-.568c-.507-2.295-2.447-3.782-5.731-3.782-3.329 0-5.335 1.574-5.335 3.869 0 5.442 8.465 2.492 8.465 5.574 0 1.07-1.058 1.595-2.888 1.595-1.984 0-3.174-.677-3.57-2.033l-2.646.547c.617 2.426 2.623 3.781 6.084 3.781zm13.736 0c3.152 0 5.488-1.574 6.216-4.109l-2.513-.656c-.507 1.421-1.808 2.295-3.66 2.295-2.116 0-3.372-1.311-3.592-3.431h9.963v-1.028c-.044-3.65-2.182-6.404-6.216-6.404-3.946 0-6.569 2.798-6.569 6.71 0 3.913 2.403 6.623 6.37 6.623zm3.57-7.934h-7.097c.264-1.836 1.653-3.082 3.593-3.082 2.05 0 3.262 1.18 3.505 3.082zm8.115 7.584v-7.169c0-2.054 1.19-3.256 2.976-3.256 1.499 0 2.645.786 2.645 3.125v7.3h2.866v-7.169c0-2.054 1.19-3.256 2.997-3.256 1.5 0 2.602.786 2.602 3.125v7.3h2.865v-7.518c0-3.41-1.455-5.465-4.519-5.465-2.05 0-3.637.853-4.475 2.47-.683-1.574-2.027-2.47-4.055-2.47-1.742 0-3.153.722-3.99 2.077l-.53-1.727h-2.248v12.633h2.866zm26.942.35c3.306 0 5.907-2.666 5.907-6.666 0-4.022-2.579-6.667-5.863-6.667-1.896 0-3.439.656-4.431 2.033v-6.535h-2.866v17.485h2.249l.55-1.792c.949 1.42 2.47 2.142 4.454 2.142zm-.333-2.623c-2.139 0-3.748-1.136-3.748-4.043 0-2.732 1.653-4.044 3.77-4.044 2.248 0 3.615 1.749 3.615 4.044 0 2.295-1.389 4.043-3.637 4.043zm11.183 2.273V13.711h-2.866v17.485h2.866zm8.18 3.957 1.61-3.957 5.4-12.633h-3.042l-1.896 4.874A103.467 103.467 0 0 0 186 28.18a109.966 109.966 0 0 0-1.763-4.721l-1.962-4.896h-3.13l5.466 12.612-1.785 3.978h2.8z" fill="#2F343A"/>
    </g>
</svg>
